<?xml version="1.0" encoding="utf-8"?>
<!-- Generator: Adobe Illustrator 25.4.1, SVG Export Plug-In . SVG Version: 6.00 Build 0)  -->
<svg version="1.1" id="Layer_1" xmlns="http://www.w3.org/2000/svg" xmlns:xlink="http://www.w3.org/1999/xlink" x="0px" y="0px"
	 viewBox="0 0 48 48" style="enable-background:new 0 0 48 48;" xml:space="preserve">
<style type="text/css">
	.st0{fill:#00A9CE;}
	.st1{fill:#FFFFFF;}
</style>
<g>
	<path class="st0" d="M9.2,33.7H1.7c-0.8,0-1.5,0.7-1.5,1.5v11.2c0,0.8,0.7,1.5,1.5,1.5h7.5c0.8,0,1.5-0.7,1.5-1.5V35.2
		C10.7,34.4,10,33.7,9.2,33.7z M7.6,44.9H3.2v-8.1h4.4V44.9z"/>
	<path class="st0" d="M21.3,22.5h-7.5c-0.8,0-1.5,0.7-1.5,1.5v22.3c0,0.8,0.7,1.5,1.5,1.5h7.5c0.8,0,1.5-0.7,1.5-1.5V24.1
		C22.9,23.2,22.2,22.5,21.3,22.5z M19.8,44.9h-4.4V25.6h4.4V44.9z"/>
	<path class="st0" d="M33.5,11.3h-7.5c-0.8,0-1.5,0.7-1.5,1.5v33.5c0,0.8,0.7,1.5,1.5,1.5h7.5c0.8,0,1.5-0.7,1.5-1.5V12.9
		C35,12,34.4,11.3,33.5,11.3z M32,44.9h-4.4V14.4H32V44.9z"/>
	<path class="st0" d="M45.7,0.2h-7.5c-0.8,0-1.5,0.7-1.5,1.5v44.6c0,0.8,0.7,1.5,1.5,1.5h7.5c0.8,0,1.5-0.7,1.5-1.5V1.7
		C47.2,0.9,46.5,0.2,45.7,0.2z M44.1,44.9h-4.4V3.3h4.4V44.9z"/>
</g>
</svg>
